<svg xmlns="http://www.w3.org/2000/svg" width="161.40692" height="122.38422" viewBox="0 0 161.40692 122.38422"><defs><style>.uuid-3a94cca6-75ab-48a1-93d1-d057fa08c3b6{fill:#fff}.uuid-3899aa10-6c43-4f31-82b6-731769a93040{fill:#110e63}</style></defs><path class="uuid-3899aa10-6c43-4f31-82b6-731769a93040" d="m152.44005,25.93414c-4.95212,0-8.96689,4.01477-8.96689,8.96689,0-4.95212-4.01477-8.96689-8.96689-8.96689-4.95287,0-8.96764,4.01477-8.96764,8.96689,0-3.98933-2.60725-7.3665-6.2094-8.53034,2.67751-1.08985,4.56717-3.71427,4.56717-6.78272,0-4.0454-3.27926-7.32464-7.32466-7.32464-4.04467,0-7.32391,3.27923-7.32391,7.32464,0,3.06845,1.88891,5.69288,4.56642,6.78272-3.60215,1.16385-6.2094,4.54101-6.2094,8.53034v-5.55533c0-4.95212-4.01477-8.96689-8.96689-8.96689-4.95285,0-8.96762,4.01477-8.96762,8.96689,0-2.71937-1.21542-5.1517-3.12675-6.79618,1.18101-1.35893,1.90161-3.12975,1.90161-5.07172,0-2.67301-1.35445-5.02986-3.41528-6.42093,1.25952-1.16533,2.05261-2.82702,2.05261-4.67779,0-3.52368-2.8554-6.37907-6.37907-6.37907-3.52292,0-6.37907,2.85539-6.37907,6.37907,0,1.85077.79308,3.51246,2.0526,4.67779-2.06008,1.39107-3.41528,3.74792-3.41528,6.42093,0,1.94197.72058,3.71279,1.90237,5.07172-1.91208,1.64449-3.1275,4.07682-3.1275,6.79618,0-4.95212-4.01477-8.96689-8.96689-8.96689-4.95286,0-8.96688,4.01477-8.96688,8.96689,0-1.85602-.56436-3.57973-1.53012-5.01043.19435-.67798.30423-1.39183.30423-2.13259,0-3.53189-2.36729-6.50467-5.60018-7.43454,2.33515-.87008,4.00131-3.1133,4.00131-5.75194,0-3.3921-2.75002-6.14286-6.14287-6.14286-3.3921,0-6.14287,2.75076-6.14287,6.14286,0,2.63864,1.66691,4.88186,4.00206,5.75194-3.23289.92987-5.6002,3.90265-5.6002,7.43454,0,.74076.10988,1.4546.30423,2.13259-.96575,1.4307-1.53011,3.15441-1.53011,5.01043,0-4.95212-4.01477-8.96689-8.96689-8.96689s-8.96688,4.01477-8.96688,8.96689v5.55533c0-4.95212-4.01477-8.96689-8.96689-8.96689-4.95287,0-8.96764,4.01477-8.96764,8.96689v53.24146c0,4.95212,4.01477,8.96689,8.96764,8.96689,4.95212,0,8.96689-4.01477,8.96689-8.96689v5.55533c0,4.95212,4.01476,8.96689,8.96688,8.96689s8.96689-4.01477,8.96689-8.96689c0,1.77381.52175,3.42276,1.41052,4.81459-.11811.53819-.18464,1.09507-.18464,1.66839,0,3.53189,2.36731,6.5054,5.6002,7.43528-2.33515.87008-4.00206,3.11329-4.00206,5.75193,0,3.39212,2.75077,6.14287,6.14287,6.14287,3.39286,0,6.14287-2.75076,6.14287-6.14287,0-2.63864-1.66616-4.88185-4.00131-5.75193,3.23289-.92988,5.60018-3.90339,5.60018-7.43528,0-.57332-.06652-1.1302-.18537-1.66839.88876-1.39183,1.41126-3.04078,1.41126-4.81459,0,4.95212,4.01402,8.96689,8.96688,8.96689,4.95212,0,8.96689-4.01477,8.96689-8.96689,0,2.56988,1.0876,4.88111,2.81953,6.51588-.99566,1.30287-1.5944,2.92642-1.5944,4.69274,0,2.67301,1.3552,5.02985,3.41528,6.42093-1.25952,1.16534-2.0526,2.827-2.0526,4.67779,0,3.52292,2.85616,6.37907,6.37907,6.37907,3.52367,0,6.37907-2.85616,6.37907-6.37907,0-1.85078-.79309-3.51245-2.05261-4.67779,2.06083-1.39108,3.41528-3.74792,3.41528-6.42093,0-1.76632-.59801-3.38987-1.59439-4.69274,1.73268-1.63477,2.81953-3.94599,2.81953-6.51588,0,4.95212,4.01477,8.96689,8.96762,8.96689,4.95212,0,8.96689-4.01477,8.96689-8.96689v-5.55533c0,3.29417,1.78202,6.16604,4.42962,7.72455-1.69531,1.34175-2.78664,3.41303-2.78664,5.74296,0,4.04466,3.27923,7.32391,7.32391,7.32391,4.0454,0,7.32466-3.27924,7.32466-7.32391,0-2.32993-1.09208-4.40121-2.78739-5.74296,2.6476-1.55851,4.42962-4.43037,4.42962-7.72455,0,4.95212,4.01477,8.96689,8.96764,8.96689,4.95212,0,8.96689-4.01477,8.96689-8.96689,0,4.95212,4.01477,8.96689,8.96689,8.96689s8.96686-4.01477,8.96686-8.96689v-53.24146c0-4.95212-4.01475-8.96689-8.96686-8.96689"/><polygon class="uuid-3a94cca6-75ab-48a1-93d1-d057fa08c3b6" points="22.26614 57.78692 10.72265 57.78692 10.72265 40.02284 22.14877 40.02284 22.14877 42.66446 13.92415 42.66446 13.92415 47.4798 20.53494 47.4798 20.53494 50.05639 13.92415 50.05639 13.92415 55.02795 22.26614 55.02795 22.26614 57.78692"/><path class="uuid-3a94cca6-75ab-48a1-93d1-d057fa08c3b6" d="m38.44242,57.78692h-3.11031l-6.74161-11.34837c-.1039-.17341-.27358-.45523-.50755-.84542-.1039-.17341-.26461-.44699-.48138-.81998v13.01377h-2.5766v-17.76408h3.53936l6.22135,10.46335c.05158.08673.42906.72434,1.13245,1.91359v-12.37694h2.52428v17.76408Z"/><polygon class="uuid-3a94cca6-75ab-48a1-93d1-d057fa08c3b6" points="53.89004 57.78692 42.34655 57.78692 42.34655 40.02284 53.77267 40.02284 53.77267 42.66446 45.54805 42.66446 45.54805 47.4798 52.15885 47.4798 52.15885 50.05639 45.54805 50.05639 45.54805 55.02795 53.89004 55.02795 53.89004 57.78692"/><path class="uuid-3a94cca6-75ab-48a1-93d1-d057fa08c3b6" d="m70.49514,57.78715h-3.38314l-2.75899-7.30073h-4.50287v7.30073h-3.2015v-17.7641h7.70437c2.14306,0,3.71727.48363,4.72414,1.45088,1.00612.96726,1.50993,2.21854,1.50993,3.75465,0,2.28207-1.06742,3.85256-3.2015,4.71068l3.10956,7.84789Zm-10.645-9.86464h3.98262c1.15338,0,2.01224-.24292,2.5766-.72878.56361-.48589.84541-1.15413.84541-2.00402,0-.78114-.27732-1.41201-.8327-1.89341-.55538-.48137-1.33202-.72281-2.32918-.72281h-4.24275v5.34902Z"/><path class="uuid-3a94cca6-75ab-48a1-93d1-d057fa08c3b6" d="m87.04965,48.70326v9.0835h-1.41874l-.97547-2.39421c-1.03303,1.77828-2.63416,2.66779-4.80262,2.66779-2.42112,0-4.22705-.9194-5.42005-2.75897-1.19374-1.83884-1.78949-3.96917-1.78949-6.3903,0-2.55866.66527-4.72562,1.99729-6.50018,1.33204-1.77378,3.19553-2.66106,5.58974-2.66106,1.78724,0,3.25755.51876,4.41168,1.55479,1.15413,1.03676,1.88218,2.32767,2.18641,3.87199l-2.78514.4941c-.52025-2.16847-1.76557-3.25309-3.73521-3.25309-1.25802,0-2.28358.51203-3.07741,1.53536-.79384,1.02406-1.19075,2.59901-1.19075,4.72414,0,4.48567,1.40527,6.72814,4.21658,6.72814,1.09283,0,1.9973-.37746,2.71264-1.13168.71685-.75497,1.07415-1.75286,1.07415-2.9937h-3.67018v-2.57661h6.67658Z"/><rect class="uuid-3a94cca6-75ab-48a1-93d1-d057fa08c3b6" x="90.6803" y="40.02284" width="3.20149" height="17.76408"/><path class="uuid-3a94cca6-75ab-48a1-93d1-d057fa08c3b6" d="m95.9252,53.5056l3.11029-.66375c.37299,1.76108,1.80444,2.64163,4.29432,2.64163,1.13693,0,2.0115-.22501,2.62294-.67648.61144-.45076.91718-1.01062.91718-1.67886,0-.48589-.13904-.93511-.41636-1.34698s-.87231-.73478-1.78277-.96949l-3.3966-.88504c-1.16309-.30346-2.02195-.64808-2.57734-1.03453-.55464-.3857-.9994-.93062-1.33352-1.63326s-.50081-1.45312-.50081-2.25143c0-1.58766.58977-2.86064,1.76929-3.81966,1.18029-.95829,2.69021-1.43818,4.52906-1.43818,1.52712,0,2.89128.33412,4.09324,1.00239,1.20123.66824,1.96665,1.61383,2.29703,2.83671l-3.04525.75497c-.46869-1.34474-1.56152-2.01748-3.27926-2.01748-.99789,0-1.75959.20857-2.28433.6249-.52473.41636-.78709.94559-.78709,1.58769,0,1.01509.82373,1.7267,2.47268,2.13482l3.01836.75422c1.83061.46045,3.05874,1.13916,3.68364,2.03691.62415.89773.9366,1.88889.9366,2.97351,0,1.7439-.65704,3.11702-1.97113,4.11865-1.31484,1.00239-3.01761,1.50321-5.10833,1.50321-1.7611,0-3.30316-.36852-4.62623-1.10629-1.32305-.73702-2.20209-1.88665-2.63563-3.44817"/><rect class="uuid-3a94cca6-75ab-48a1-93d1-d057fa08c3b6" x="113.01228" y="40.02284" width="3.20149" height="17.76408"/><path class="uuid-3a94cca6-75ab-48a1-93d1-d057fa08c3b6" d="m133.53558,57.78692h-3.11031l-6.74162-11.34837c-.10388-.17341-.27358-.45523-.50753-.84542-.10391-.17341-.26461-.44699-.48139-.81998v13.01377h-2.57659v-17.76408h3.53935l6.22135,10.46335c.05158.08673.42906.72434,1.13246,1.91359v-12.37694h2.52428v17.76408Z"/><path class="uuid-3a94cca6-75ab-48a1-93d1-d057fa08c3b6" d="m150.38923,48.70326v9.0835h-1.41874l-.97547-2.39421c-1.03304,1.77828-2.63417,2.66779-4.80263,2.66779-2.42111,0-4.22705-.9194-5.42005-2.75897-1.19373-1.83884-1.78948-3.96917-1.78948-6.3903,0-2.55866.66601-4.72562,1.99729-6.50018,1.33204-1.77378,3.19551-2.66106,5.58973-2.66106,1.78724,0,3.25756.51876,4.41169,1.55479,1.15413,1.03676,1.88218,2.32767,2.1864,3.87199l-2.78513.4941c-.52026-2.16847-1.76557-3.25309-3.73521-3.25309-1.25804,0-2.28358.51203-3.07742,1.53536-.79384,1.02406-1.19074,2.59901-1.19074,4.72414,0,4.48567,1.40526,6.72814,4.21658,6.72814,1.09283,0,1.99729-.37746,2.71264-1.13168.71685-.75497,1.07415-1.75286,1.07415-2.9937h-3.67018v-2.57661h6.67658Z"/><polygon class="uuid-3a94cca6-75ab-48a1-93d1-d057fa08c3b6" points="10.72236 61.06188 27.15592 61.06188 27.15592 66.20537 16.5924 66.20537 16.5924 69.80604 26.09673 69.80604 26.09673 74.67743 16.5924 74.67743 16.5924 82.24127 10.72236 82.24127 10.72236 61.06188"/><path class="uuid-3a94cca6-75ab-48a1-93d1-d057fa08c3b6" d="m29.38449,72.95258v-11.89106h5.96048v11.76997c0,3.05575,1.54282,4.50811,3.90264,4.50811s3.90339-1.39183,3.90339-4.35712v-11.92096h5.95974v11.74007c0,6.83729-3.90265,9.83323-9.92367,9.83323-6.02028,0-9.80258-3.05572-9.80258-9.68224"/><polygon class="uuid-3a94cca6-75ab-48a1-93d1-d057fa08c3b6" points="57.46693 66.20537 51.11327 66.20537 51.11327 61.06191 69.68987 61.06191 69.68987 66.20537 63.33621 66.20537 63.33621 82.24127 57.46693 82.24127 57.46693 66.20537"/><path class="uuid-3a94cca6-75ab-48a1-93d1-d057fa08c3b6" d="m71.6921,72.95258v-11.89106h5.96048v11.76997c0,3.05575,1.54282,4.50811,3.90264,4.50811s3.90339-1.39183,3.90339-4.35712v-11.92096h5.95973v11.74007c0,6.83729-3.90265,9.83323-9.92366,9.83323-6.02028,0-9.80258-3.05572-9.80258-9.68224"/><path class="uuid-3a94cca6-75ab-48a1-93d1-d057fa08c3b6" d="m94.02796,61.06214h10.01487c3.23737,0,5.4761.8469,6.89858,2.29927,1.24084,1.21018,1.87545,2.84419,1.87545,4.93193v.06056c0,3.23737-1.72371,5.38565-4.35637,6.50538l5.05304,7.38221h-6.7775l-4.26592-6.4142h-2.57212v6.4142h-5.87003v-21.17936Zm9.7428,10.16584c1.99729,0,3.14693-.96799,3.14693-2.51155v-.05979c0-1.66392-1.2102-2.51158-3.17683-2.51158h-3.84286v5.08292h3.87277Z"/><polygon class="uuid-3a94cca6-75ab-48a1-93d1-d057fa08c3b6" points="115.17687 61.06188 131.87877 61.06188 131.87877 66.05438 120.98634 66.05438 120.98634 69.26112 130.81956 69.26112 130.81956 73.89032 120.98634 73.89032 120.98634 77.24879 132.02976 77.24879 132.02976 82.24127 115.17687 82.24127 115.17687 61.06188"/><path class="uuid-3a94cca6-75ab-48a1-93d1-d057fa08c3b6" d="m133.7537,79.09439l3.26801-3.90263c2.08699,1.6639,4.41691,2.54146,6.86795,2.54146,1.57345,0,2.41962-.54492,2.41962-1.45237v-.06054c0-.87756-.69518-1.36119-3.56928-2.0272-4.50884-1.02855-7.98766-2.29929-7.98766-6.65639v-.06056c0-3.93329,3.11627-6.77748,8.19921-6.77748,3.60065,0,6.4142.96801,8.71347,2.81431l-2.93464,4.14482c-1.936-1.36192-4.05437-2.08774-5.93058-2.08774-1.42173,0-2.11764.60546-2.11764,1.36192v.06056c0,.96799.72657,1.39183,3.66121,2.05708,4.87064,1.05919,7.89648,2.63266,7.89648,6.59585v.06054c0,4.32647-3.41902,6.89858-8.56251,6.89858-3.75164,0-7.32165-1.18029-9.92365-3.51022"/></svg>